<?xml version="1.0" standalone="no"?>
<!DOCTYPE svg PUBLIC "-//W3C//DTD SVG 20010904//EN"
 "http://www.w3.org/TR/2001/REC-SVG-20010904/DTD/svg10.dtd">
<svg version="1.0" xmlns="http://www.w3.org/2000/svg"
 width="564.000000pt" height="564.000000pt" viewBox="0 0 564.000000 564.000000"
 preserveAspectRatio="xMidYMid meet">

<g transform="translate(0.000000,564.000000) scale(0.100000,-0.100000)"
fill="#000000" stroke="none">
<path d="M2670 5519 c-608 -32 -1179 -264 -1646 -670 -60 -53 -114 -91 -135
-96 -28 -8 -38 -19 -58 -59 -13 -27 -64 -98 -115 -159 -316 -379 -508 -793
-597 -1290 -18 -96 -23 -172 -26 -379 -5 -279 3 -369 52 -604 75 -352 248
-735 462 -1020 52 -69 55 -76 49 -117 l-7 -43 53 -12 c29 -7 58 -18 63 -24 6
-7 20 -25 32 -40 l22 -28 24 28 c19 21 29 26 50 20 40 -10 54 -42 29 -69 -37
-42 -36 -45 45 -122 43 -41 83 -77 88 -79 6 -2 44 -30 85 -63 297 -236 676
-418 1055 -508 387 -91 867 -91 1250 1 243 59 491 155 710 277 116 65 322 205
391 266 23 20 64 56 93 80 l52 43 -25 27 c-14 15 -26 30 -26 33 0 3 21 11 46
17 35 9 49 9 60 0 9 -7 18 -8 23 -3 4 5 46 52 92 104 361 406 580 869 664
1405 21 134 25 195 25 377 0 241 -13 362 -61 581 -83 379 -264 761 -501 1059
-59 74 -69 92 -66 120 3 30 0 33 -27 36 -20 2 -48 21 -86 59 l-56 55 -29 -36
c-34 -40 -64 -40 -83 0 -14 32 -16 28 19 68 l30 34 -107 89 c-142 118 -279
213 -435 301 -70 40 -129 72 -132 72 -3 0 -33 13 -68 29 -104 48 -138 61 -258
102 -317 109 -671 156 -1020 138z m540 -78 c323 -49 630 -154 915 -314 129
-72 367 -236 360 -247 -3 -5 -26 -16 -51 -26 -25 -9 -43 -22 -40 -28 2 -6 25
-59 51 -118 l47 -107 -35 -43 c-18 -24 -48 -64 -66 -90 -18 -27 -36 -48 -40
-48 -5 0 -27 32 -50 70 -23 39 -45 70 -48 70 -14 0 -113 -65 -113 -74 0 -5 28
-54 61 -109 l62 -100 -54 -103 c-30 -57 -56 -103 -59 -103 -3 0 -29 29 -58 65
-59 71 -56 71 -126 10 l-39 -34 77 -93 c56 -67 76 -98 73 -113 -5 -21 -68
-198 -73 -205 -2 -2 -31 22 -65 53 -34 31 -66 56 -70 56 -4 0 -26 -23 -50 -51
l-43 -51 45 -41 c24 -22 65 -60 90 -83 l46 -42 -25 -111 c-14 -61 -29 -111
-33 -111 -4 0 -36 20 -71 44 l-65 45 -41 -60 -41 -59 100 -67 101 -67 -7 -116
c-4 -63 -9 -117 -11 -119 -2 -3 -84 33 -136 60 -15 8 -23 -1 -48 -52 -17 -33
-28 -64 -25 -68 3 -3 52 -28 108 -56 l102 -50 7 -115 c3 -63 5 -116 4 -117 -1
-1 -35 9 -76 22 l-75 23 -18 -41 c-40 -92 -42 -89 78 -128 79 -25 109 -39 115
-54 11 -28 49 -209 45 -214 -2 -1 -36 2 -75 9 -39 7 -74 10 -77 7 -3 -3 -11
-33 -18 -67 -10 -46 -10 -63 -1 -66 6 -2 58 -13 115 -24 57 -10 105 -21 106
-22 3 -6 75 -214 75 -219 0 -3 -36 -4 -80 -1 l-80 5 0 -72 0 -71 48 0 c26 0
77 -3 114 -7 l68 -6 46 -91 c26 -50 50 -95 55 -101 18 -19 7 -25 -48 -25 -95
0 -101 -4 -96 -58 8 -92 9 -94 51 -88 20 3 71 8 112 11 l75 6 68 -96 c38 -53
67 -98 65 -101 -2 -2 -32 -10 -67 -18 -35 -8 -65 -17 -68 -20 -5 -5 16 -109
26 -124 4 -6 41 -2 98 11 l93 21 30 -29 c16 -16 30 -31 30 -35 0 -10 -154
-134 -260 -208 -343 -241 -737 -396 -1165 -459 -168 -25 -560 -25 -734 0 -208
30 -461 98 -651 177 -202 83 -452 229 -629 369 l-83 66 38 17 c22 10 43 19 49
21 5 2 -14 58 -44 125 -29 67 -51 125 -49 130 6 18 123 181 129 181 4 1 29
-35 58 -80 l51 -80 38 23 c21 13 49 30 61 38 l23 16 -72 114 -72 115 53 102
c30 57 56 103 59 103 3 -1 20 -20 38 -43 18 -23 45 -57 61 -76 l30 -33 50 42
c28 24 51 47 51 52 0 4 -38 54 -84 109 l-83 101 37 107 c21 58 41 106 44 106
4 0 39 -29 78 -65 l71 -64 49 54 c38 42 45 56 36 65 -161 142 -198 180 -193
195 3 10 13 61 23 115 l18 98 82 -57 c46 -31 86 -56 91 -56 4 0 25 25 46 56
29 45 34 59 24 65 -8 4 -59 39 -114 76 l-100 69 4 115 c2 62 5 115 6 117 1 2
43 -17 93 -42 l91 -44 24 41 c49 85 53 79 -87 149 -142 70 -129 51 -142 215
l-6 81 89 -28 c48 -15 94 -29 101 -31 9 -3 22 20 38 60 13 35 23 65 21 67 -1
2 -63 23 -137 47 l-134 45 -27 108 c-14 60 -25 111 -23 113 3 3 119 -12 180
-25 l30 -6 13 67 c6 37 11 69 9 70 -2 1 -67 15 -146 31 l-144 29 -39 100 c-21
55 -39 104 -39 109 0 4 49 5 109 1 l109 -7 7 66 c4 37 4 70 0 74 -3 4 -71 8
-150 10 l-144 4 -56 100 c-31 55 -54 102 -52 104 2 2 50 9 108 15 57 6 105 12
106 13 2 1 0 32 -4 69 -5 60 -8 67 -27 66 -12 0 -80 -6 -153 -12 l-131 -12
-70 91 -71 92 112 27 c62 16 113 28 114 29 3 2 -32 125 -38 130 -3 3 -50 -5
-105 -18 -54 -14 -100 -23 -101 -22 -5 5 171 150 261 215 389 281 872 457
1361 495 123 10 455 -4 585 -23z m1379 -642 c21 -18 23 -22 10 -35 -13 -13
-17 -10 -32 21 -19 40 -13 43 22 14z m181 -174 c10 -13 9 -15 -8 -15 -15 0
-20 5 -16 15 4 8 7 15 9 15 1 0 8 -7 15 -15z m-3998 -142 c-39 -77 -39 -78 26
-102 33 -11 64 -21 70 -21 6 0 21 27 34 60 12 33 25 60 28 60 6 -1 120 -155
120 -163 0 -3 -22 -43 -50 -89 -27 -46 -50 -89 -50 -95 0 -11 95 -73 112 -73
4 0 19 21 34 48 46 79 44 79 83 10 71 -125 69 -110 22 -170 -22 -29 -55 -69
-71 -90 l-30 -36 51 -41 c28 -23 55 -41 60 -41 4 0 28 25 53 56 l46 56 19 -45
c11 -25 28 -69 38 -97 l18 -52 -84 -79 -83 -80 43 -48 c24 -27 48 -49 54 -50
5 -1 33 22 62 51 29 28 54 50 56 47 9 -11 47 -190 42 -199 -4 -7 -118 -91
-179 -132 -9 -6 8 -36 59 -102 15 -19 17 -19 76 23 34 24 65 39 69 35 5 -5 10
-51 12 -103 l3 -94 -97 -51 c-53 -28 -99 -54 -103 -58 -4 -4 8 -34 26 -67 l33
-59 68 34 c37 19 70 34 73 34 7 0 6 -126 -1 -172 -5 -26 -12 -37 -28 -41 -21
-5 -199 -67 -204 -72 -2 -2 14 -49 36 -106 l11 -27 66 24 c83 30 97 31 91 2
-32 -154 -40 -179 -60 -183 -25 -6 -217 -45 -221 -45 -3 0 24 -132 28 -136 1
-1 37 5 80 13 42 9 80 14 83 11 2 -3 -10 -47 -29 -99 l-33 -94 -128 -9 -128
-9 6 -45 c3 -25 6 -56 6 -69 0 -24 1 -24 85 -21 47 2 85 -1 85 -6 0 -5 -21
-47 -47 -93 l-47 -85 -128 8 -128 7 0 -72 0 -71 63 -1 c115 -2 115 -2 46 -96
-33 -46 -66 -83 -72 -83 -7 0 -61 11 -122 24 -82 18 -112 21 -117 13 -10 -15
-27 5 -129 158 -220 330 -357 694 -415 1102 -25 174 -22 515 5 693 63 419 204
778 439 1120 67 97 174 231 180 225 2 -2 -5 -20 -16 -42z m3978 -17 c58 -13
108 -22 112 -20 5 3 8 14 8 25 0 33 16 21 81 -63 231 -299 407 -672 483 -1025
48 -222 58 -323 58 -568 0 -201 -3 -250 -26 -390 -30 -184 -68 -333 -125 -490
-107 -298 -300 -621 -510 -853 -65 -73 -77 -82 -87 -68 -9 14 -2 38 37 132 27
63 49 119 49 123 0 12 -123 61 -131 53 -3 -4 -23 -49 -44 -99 -20 -51 -41 -90
-46 -88 -12 8 -100 128 -112 152 -8 18 1 40 62 141 39 66 71 122 71 125 0 8
-105 67 -118 67 -6 0 -34 -41 -62 -91 -59 -103 -49 -105 -119 24 l-43 77 91
112 c50 62 91 115 90 118 0 3 -24 24 -54 47 l-53 43 -68 -85 c-45 -55 -71 -80
-76 -72 -4 7 -22 52 -40 101 l-32 90 107 101 107 101 -48 47 c-26 26 -52 47
-57 47 -5 0 -40 -30 -77 -67 -42 -42 -71 -64 -77 -58 -7 9 -53 198 -48 201 1
0 55 37 119 83 l118 82 -39 52 c-21 29 -45 52 -53 51 -8 -1 -46 -24 -86 -53
-40 -28 -74 -51 -76 -51 -8 0 -15 49 -17 129 l-2 85 119 62 c65 35 120 68 122
73 2 6 -11 36 -28 66 l-32 55 -85 -45 c-47 -25 -89 -45 -92 -45 -7 0 2 207 9
213 3 2 62 24 133 48 70 24 127 48 127 54 0 9 -39 117 -44 123 -2 1 -47 -14
-100 -33 -83 -30 -97 -33 -92 -18 2 10 12 56 21 103 9 47 20 88 23 92 4 4 65
18 136 32 71 14 131 27 133 30 5 5 -17 109 -26 125 -4 6 -39 3 -101 -9 -52
-10 -96 -17 -98 -15 -1 1 14 47 35 101 l38 99 138 9 137 8 0 70 0 70 -100 -4
c-63 -2 -100 1 -99 7 0 6 22 48 48 95 41 71 53 85 72 84 13 -1 75 -5 137 -9
105 -7 112 -6 112 11 0 11 3 42 6 70 l7 52 -97 7 c-53 4 -96 10 -96 14 0 3 28
43 61 89 50 68 64 81 82 77 12 -3 69 -16 127 -29z m-3747 -3562 l18 -36 -29
23 c-16 13 -27 30 -24 37 7 20 17 14 35 -24z"/>
</g>
</svg>
