<?xml version="1.0" encoding="utf-8"?>
<!-- Generator: Adobe Illustrator 24.2.3, SVG Export Plug-In . SVG Version: 6.00 Build 0)  -->
<svg version="1.1" id="Layer_1" xmlns="http://www.w3.org/2000/svg" xmlns:xlink="http://www.w3.org/1999/xlink" x="0px" y="0px"
	 viewBox="0 0 313.292 283.032" enable-background="new 0 0 313.292 283.032" xml:space="preserve">
<g>
	<rect x="142.896" y="250.73" fill="none" width="6.222" height="15.889"/>
	
		<rect x="100.324" y="202.128" transform="matrix(0.7071 -0.7071 0.7071 0.7071 -114.6303 132.7698)" fill="none" width="5.256" height="5.256"/>
	<path fill="none" d="M156.781,113.074c39.038,0,74.33,24.299,88.339,60.615l65.852-65.851C287.097,43.523,226.639,2,156.768,2
		C86.425,2,25.871,43.517,2.314,107.835l66.052,66.052C82.328,137.445,117.626,113.074,156.781,113.074z"/>
	<rect x="153.497" y="267.619" fill="none" width="6.295" height="10.444"/>
	
		<rect x="154.017" y="148.436" transform="matrix(0.7071 -0.7071 0.7071 0.7071 -60.9382 155.01)" fill="none" width="5.256" height="5.256"/>
	
		<rect x="207.709" y="202.128" transform="matrix(0.7071 -0.7071 0.7071 0.7071 -83.178 208.7023)" fill="none" width="5.256" height="5.256"/>
	<path fill="none" d="M156.781,115.074c-38.627,0-73.423,24.225-86.867,60.36l27.907,27.907l58.823-58.822l58.823,58.822
		l28.108-28.108C230.083,139.226,195.291,115.074,156.781,115.074z"/>
	<polygon fill="none" points="159.542,259.621 159.542,257.202 153.747,257.202 153.747,259.621 156.645,262.519 	"/>
	<path fill="none" d="M204.5,204.756l4.777-4.777l-47.855-47.854l-4.777,4.777l-4.777-4.777l-47.855,47.854l4.777,4.777
		l-4.777,4.777l35.935,35.935c4.121-4.563,10.079-7.436,16.697-7.436c6.618,0,12.576,2.873,16.697,7.436l35.935-35.935
		L204.5,204.756z M156.645,216.091c-5.438,0-9.861-4.423-9.861-9.86s4.424-9.861,9.861-9.861s9.861,4.424,9.861,9.861
		S162.082,216.091,156.645,216.091z"/>
	<path fill="none" d="M156.645,197.869c-4.61,0-8.361,3.751-8.361,8.361s3.751,8.36,8.361,8.36s8.361-3.75,8.361-8.36
		S161.255,197.869,156.645,197.869z"/>
	<path fill="none" d="M156.645,240.032c-11.304,0-20.5,9.196-20.5,20.5s9.196,20.5,20.5,20.5s20.5-9.196,20.5-20.5
		S167.948,240.032,156.645,240.032z M150.119,267.619h-8.222V249.73h8.222V267.619z M160.792,279.063h-8.295v-12.444h8.295V279.063z
		 M161.042,260.242l-4.397,4.397l-4.397-4.397v-4.54h8.795V260.242z M171.393,267.619h-8.222V249.73h8.222V267.619z"/>
	<rect x="164.17" y="250.73" fill="none" width="6.222" height="15.889"/>
	<path d="M156.645,196.369c-5.438,0-9.861,4.424-9.861,9.861s4.424,9.86,9.861,9.86s9.861-4.423,9.861-9.86
		S162.082,196.369,156.645,196.369z M156.645,214.591c-4.61,0-8.361-3.75-8.361-8.36s3.751-8.361,8.361-8.361
		s8.361,3.751,8.361,8.361S161.255,214.591,156.645,214.591z"/>
	<path d="M152.247,260.242l4.397,4.397l4.397-4.397v-4.54h-8.795V260.242z M153.747,257.202h5.795v2.419l-2.897,2.897l-2.897-2.897
		V257.202z"/>
	<path d="M152.497,279.063h8.295v-12.444h-8.295V279.063z M153.497,267.619h6.295v10.444h-6.295V267.619z"/>
	<path d="M163.17,267.619h8.222V249.73h-8.222V267.619z M164.17,250.73h6.222v15.889h-6.222V250.73z"/>
	<path d="M141.896,267.619h8.222V249.73h-8.222V267.619z M142.896,250.73h6.222v15.889h-6.222V250.73z"/>
	<path d="M312.839,108.799l0.452-0.451l-0.221-0.601c-11.611-31.651-32.34-58.566-59.942-77.836C225.097,10.344,191.775,0,156.768,0
		C85.357,0,23.907,42.295,0.216,107.752L0,108.35l97.115,97.113l41.554,41.554c-2.839,3.766-4.524,8.447-4.524,13.515
		c0,12.406,10.093,22.5,22.5,22.5s22.5-10.094,22.5-22.5c0-5.068-1.686-9.749-4.524-13.515l41.929-41.929L312.839,108.799z
		 M214.053,204.756l-3.716,3.716l-3.716-3.716l3.716-3.716L214.053,204.756z M156.645,144.52l-58.823,58.822l-27.907-27.907
		c13.444-36.135,48.24-60.36,86.867-60.36c38.509,0,73.302,24.152,86.794,60.16l-28.108,28.108L156.645,144.52z M156.645,147.348
		l3.716,3.716l-3.716,3.716l-3.716-3.716L156.645,147.348z M99.236,204.756l3.716-3.716l3.716,3.716l-3.716,3.716L99.236,204.756z
		 M156.768,2c69.871,0,130.33,41.523,154.205,105.838l-65.852,65.851c-14.009-36.316-49.301-60.615-88.339-60.615
		c-39.155,0-74.453,24.37-88.414,60.813L2.314,107.835C25.871,43.517,86.425,2,156.768,2z M156.645,281.032
		c-11.304,0-20.5-9.196-20.5-20.5s9.196-20.5,20.5-20.5s20.5,9.196,20.5,20.5S167.948,281.032,156.645,281.032z M156.645,238.032
		c-6.618,0-12.576,2.873-16.697,7.436l-35.935-35.935l4.777-4.777l-4.777-4.777l47.855-47.854l4.777,4.777l4.777-4.777
		l47.855,47.854l-4.777,4.777l4.777,4.777l-35.935,35.935C169.221,240.905,163.262,238.032,156.645,238.032z"/>
</g>
</svg>
