<?xml version="1.0" standalone="no"?>
<!DOCTYPE svg PUBLIC "-//W3C//DTD SVG 20010904//EN"
 "http://www.w3.org/TR/2001/REC-SVG-20010904/DTD/svg10.dtd">
<svg version="1.0" xmlns="http://www.w3.org/2000/svg"
 width="1588.000000pt" height="1367.000000pt" viewBox="0 0 1588.000000 1367.000000"
 preserveAspectRatio="xMidYMid meet">

<g transform="translate(0.000000,1367.000000) scale(0.100000,-0.100000)"
fill="#ffffff" stroke="none">
<path d="M7400 11614 c-123 -9 -310 -33 -450 -55 -545 -88 -990 -246 -1540
-545 -430 -233 -854 -555 -1230 -933 -391 -393 -708 -810 -1000 -1316 -83
-143 -310 -599 -310 -622 0 -10 109 -128 243 -263 343 -348 1270 -1294 1792
-1830 281 -289 784 -798 1466 -1485 562 -566 715 -723 772 -791 17 -20 17 -24
-2 -75 -56 -154 -65 -200 -65 -329 0 -134 13 -197 59 -298 37 -80 122 -188
207 -262 160 -139 257 -180 435 -188 239 -10 449 78 615 257 83 90 155 227
168 321 25 175 -1 359 -71 504 -10 22 -19 49 -19 60 0 12 291 309 833 850
1125 1122 3368 3382 3387 3412 14 23 11 31 -47 146 -325 643 -804 1304 -1332
1841 -697 709 -1462 1191 -2246 1418 -55 16 -113 33 -130 38 -63 19 -233 57
-315 71 -36 6 -87 15 -115 20 -65 12 -176 27 -295 41 -90 11 -715 21 -810 13z
m28 -2498 c102 -69 259 -101 411 -86 100 11 176 35 284 92 15 8 87 -60 459
-439 243 -246 714 -722 1047 -1056 518 -519 606 -612 605 -635 -1 -15 -18 -69
-38 -120 -43 -110 -71 -269 -61 -355 10 -95 41 -201 84 -287 23 -45 41 -87 41
-94 0 -23 -468 -505 -1266 -1305 l-783 -784 -48 6 c-26 3 -82 17 -124 30 -184
59 -326 57 -506 -8 l-93 -34 -68 58 c-73 64 -214 207 -602 611 -140 146 -358
371 -485 500 -302 308 -472 484 -630 655 -72 77 -179 191 -239 252 -61 64
-106 118 -103 125 58 129 116 270 122 293 23 90 -6 238 -87 448 l-42 108 95
97 c650 669 1955 1975 1966 1969 6 -4 33 -22 61 -41z"/>
</g>
</svg>
