<svg xmlns="http://www.w3.org/2000/svg" width="220" height="37" viewBox="0 0 220 37">
  <g fill="none" fill-rule="evenodd">
    <path fill="#A1C759" fill-rule="nonzero" d="M9.47826087 8.60465116C12 6.10930233 15.3913043 4.56046512 19.2173913 4.56046512L19.2173913 0C14.173913 0 9.56521739 2.06511628 6.17391304 5.33488372L9.47826087 8.60465116zM19.3043478 11.0139535C17.3043478 11.0139535 15.3913043 11.8744186 14.0869565 13.1651163L19.3043478 18.327907 19.3043478 11.0139535z"/>
    <path fill="#6AA6BD" fill-rule="nonzero" d="M5.65217391,20.6511628 L12.2608696,20.6511628 C12.6086957,21.7697674 13.2173913,22.7162791 14,23.4906977 L19.2173913,18.327907 L14,13.1651163 C13.2173913,13.9395349 12.6086957,14.8860465 12.2608696,16.0046512 L5.65217391,16.0046512 C6.17391304,13.1651163 7.56521739,10.5837209 9.47826087,8.69069767 L6.17391304,5.33488372 C2.86956522,8.60465116 0.782608696,13.2511628 0.782608696,18.2418605 C0.782608696,23.3186047 2.86956522,27.8790698 6.17391304,31.1488372 L9.47826087,27.8790698 C7.56521739,25.9860465 6.17391304,23.4906977 5.65217391,20.6511628"/>
    <path fill="#50868D" fill-rule="nonzero" d="M32.3478261,31.2348837 L29.0434783,27.9651163 C27.0434783,29.944186 24.5217391,31.3209302 21.6521739,31.7511628 L21.6521739,25.2116279 C22.7826087,24.8674419 23.7391304,24.2651163 24.5217391,23.4906977 L19.3043478,18.327907 L14.0869565,23.4906977 C14.8695652,24.2651163 15.826087,24.8674419 16.9565217,25.2116279 L16.9565217,31.7511628 C14.0869565,31.2348837 11.4782609,29.8581395 9.56521739,27.9651163 L6.26086957,31.2348837 C9.56521739,34.5046512 14.2608696,36.5697674 19.3043478,36.5697674 C24.3478261,36.5697674 28.9565217,34.5046512 32.3478261,31.2348837"/>
    <path fill="#7AAC5D" fill-rule="nonzero" d="M32.8695652,16.0046512 L26.2608696,16.0046512 C25.3043478,13.0790698 22.5217391,11.0139535 19.3043478,11.0139535 L19.3043478,18.327907 L24.5217391,23.4906977 C25.3043478,22.7162791 25.9130435,21.7697674 26.2608696,20.6511628 L32.8695652,20.6511628 C32.3478261,23.4906977 30.9565217,26.072093 29.0434783,27.9651163 L32.3478261,31.2348837 C35.6521739,27.9651163 37.7391304,23.3186047 37.7391304,18.327907 C37.7391304,8.1744186 29.4782609,0 19.3043478,0 L19.3043478,4.64651163 C26.0869565,4.64651163 31.7391304,9.55116279 32.8695652,16.0046512"/>
    <path fill="#FFF" fill-rule="nonzero" d="M57.6521739 7.83023256L50.6086957 7.83023256 50.6086957 29.255814 53.826087 29.255814 53.826087 20.9093023 57.6521739 20.9093023C63.0434783 20.9093023 66.0869565 18.5 66.0869565 14.1976744 66.0869565 9.89534884 63.3043478 7.83023256 57.6521739 7.83023256zM53.826087 10.3255814L57.3043478 10.3255814C61.3043478 10.3255814 62.8695652 11.444186 62.8695652 14.1976744 62.8695652 17.0372093 61.1304348 18.327907 57.3043478 18.327907L53.826087 18.327907 53.826087 10.3255814zM75.826087 12.9069767C74.0869565 12.9069767 72.3478261 13.9395349 71.2173913 15.8325581L71.0434783 13.2511628 68.3478261 13.2511628 68.3478261 29.255814 71.4782609 29.255814 71.4782609 19.1023256C72.7826087 16.0046512 74.6956522 15.6604651 75.4782609 15.6604651 76.173913 15.6604651 76.5217391 15.7465116 77.0434783 15.9186047L77.2173913 16.0046512 77.826087 13.3372093 77.6521739 13.2511628C77.0434783 12.9930233 76.5217391 12.9069767 75.826087 12.9069767"/>
    <rect width="3.13" height="15.919" x="79.913" y="13.251" fill="#FFF" fill-rule="nonzero"/>
    <path fill="#FFF" fill-rule="nonzero" d="M97.4782609 25.555814C96.6956522 26.244186 95.3043478 27.1046512 93.7391304 27.1046512 90.7826087 27.1046512 88.8695652 24.7813953 88.8695652 21.3395349 88.8695652 17.8976744 90.9565217 15.4883721 93.826087 15.4883721 95.2173913 15.4883721 96.2608696 16.1767442 97.0434783 16.8651163L97.2173913 16.9511628 98.8695652 14.972093 98.6956522 14.8860465C97.2173913 13.5953488 95.6521739 12.9930233 93.7391304 12.9930233 89.826087 12.9930233 85.5652174 15.6604651 85.5652174 21.3395349 85.5652174 26.3302326 88.7826087 29.6860465 93.4782609 29.6860465 95.3913043 29.6860465 97.3913043 28.9116279 98.9565217 27.6209302L99.1304348 27.5348837 97.6521739 25.4697674 97.4782609 25.555814zM107.304348 12.9069767C103.652174 12.9069767 99.7391304 15.8325581 99.7391304 21.3395349 99.7391304 26.244186 103.043478 29.6860465 107.826087 29.6860465 109.73913 29.6860465 111.565217 29.1697674 113.391304 28.0511628L113.565217 27.9651163 112.434783 25.9 112.26087 25.9860465C110.869565 26.7604651 109.652174 27.1906977 108.26087 27.1906977 105.217391 27.1906977 103.217391 25.2116279 102.956522 22.1139535L113.913043 22.1139535 113.913043 21.9418605C114 21.5976744 114 20.9953488 114 20.4790698 114.086957 15.6604651 111.478261 12.9069767 107.304348 12.9069767M111.217391 19.8767442L102.782609 19.8767442C103.130435 17.2093023 105.043478 15.3162791 107.304348 15.3162791 109.826087 15.3162791 111.130435 16.9511628 111.217391 19.8767442M125.913043 7.83023256L120.173913 7.83023256 120.173913 29.255814 126.086957 29.255814C132.782609 29.255814 136.695652 25.2976744 136.695652 18.5 136.608696 11.6162791 132.782609 7.83023256 125.913043 7.83023256zM123.304348 10.4116279L125.652174 10.4116279C130.608696 10.4116279 133.304348 13.1651163 133.304348 18.5 133.304348 23.9209302 130.695652 26.7604651 125.652174 26.7604651L123.304348 26.7604651 123.304348 10.4116279z"/>
    <rect width="3.13" height="15.919" x="139.565" y="13.251" fill="#FFF" fill-rule="nonzero"/>
    <path fill="#FFF" fill-rule="nonzero" d="M184.434783 19.8767442L184.086957 19.7906977C182.347826 19.1883721 180.869565 18.672093 180.869565 17.3813953 180.869565 16.3488372 181.652174 15.3162791 183.73913 15.3162791 184.956522 15.3162791 186.086957 15.7465116 187.391304 16.6930233L187.565217 16.7790698 189.130435 14.8 188.956522 14.7139535C188.086957 14.0255814 186.26087 12.9069767 183.73913 12.9069767 180.26087 12.9069767 177.913043 14.8 177.913043 17.5534884 177.913043 20.2209302 180.521739 21.3395349 182.956522 22.2 184.695652 22.8023256 186.608696 23.4906977 186.608696 24.9534884 186.608696 26.3302326 185.391304 27.1906977 183.565217 27.1906977 181.478261 27.1906977 180 26.244186 178.782609 25.3837209L178.608696 25.2976744 176.956522 27.3627907 177.130435 27.4488372C178.869565 28.8255814 181.217391 29.6 183.391304 29.6 187.73913 29.6 189.652174 27.1906977 189.652174 24.7813953 189.652174 21.6837209 186.869565 20.7372093 184.434783 19.8767442M208 19.8767442L207.652174 19.7906977C205.913043 19.1883721 204.434783 18.672093 204.434783 17.3813953 204.434783 16.3488372 205.217391 15.3162791 207.304348 15.3162791 208.521739 15.3162791 209.652174 15.7465116 210.956522 16.6930233L211.130435 16.7790698 212.695652 14.8 212.521739 14.7139535C211.652174 14.0255814 209.826087 12.9069767 207.304348 12.9069767 203.826087 12.9069767 201.478261 14.8 201.478261 17.5534884 201.478261 20.2209302 204.086957 21.3395349 206.521739 22.2 208.26087 22.8023256 210.173913 23.4906977 210.173913 24.9534884 210.173913 26.3302326 208.956522 27.1906977 207.130435 27.1906977 205.043478 27.1906977 203.565217 26.244186 202.347826 25.3837209L202.173913 25.2976744 200.521739 27.3627907 200.695652 27.4488372C202.434783 28.8255814 204.782609 29.6 206.956522 29.6 211.304348 29.6 213.217391 27.1906977 213.217391 24.7813953 213.130435 21.6837209 210.434783 20.7372093 208 19.8767442M198.956522 26.6744186C198.173913 26.9325581 197.565217 27.1046512 197.130435 27.1046512 195.478261 27.1046512 194.782609 26.244186 194.782609 24.2651163L194.782609 15.8325581 199.217391 15.8325581 199.217391 13.3372093 194.782609 13.3372093 194.782609 8.94883721 191.565217 8.94883721 191.565217 24.2651163C191.565217 27.8790698 193.130435 29.6860465 196.521739 29.6860465 197.391304 29.6860465 198.347826 29.5139535 199.652174 29.0837209L199.826087 28.9976744 199.217391 26.6744186 198.956522 26.6744186z"/>
    <rect width="3.13" height="3.098" x="139.565" y="7.83" fill="#FFF" fill-rule="nonzero"/>
    <rect width="3.13" height="3.098" x="79.913" y="7.83" fill="#FFF" fill-rule="nonzero"/>
    <path fill="#FFF" fill-rule="nonzero" d="M169.217391,12.9069767 C165.565217,12.9069767 161.652174,15.8325581 161.652174,21.3395349 C161.652174,26.244186 164.956522,29.6860465 169.73913,29.6860465 C171.652174,29.6860465 173.478261,29.1697674 175.304348,28.0511628 L175.478261,27.9651163 L174.26087,25.8139535 L174.086957,25.9 C172.782609,26.6744186 171.478261,27.1046512 170.086957,27.1046512 C167.130435,27.1046512 165.130435,25.2116279 164.869565,22.1139535 L175.913043,22.1139535 L175.913043,21.9418605 C176,21.5976744 176,20.9953488 176,20.4790698 C176,15.7465116 173.478261,12.9069767 169.217391,12.9069767 Z M164.869565,19.8767442 C165.304348,16.8651163 167.391304,15.4883721 169.304348,15.4883721 C171.73913,15.4883721 173.043478,17.0372093 173.130435,19.8767442 L164.869565,19.8767442 Z"/>
    <path fill="#FFF" fill-rule="nonzero" d="M155.043478 26.8465116L151.826087 26.8465116C149.391304 26.8465116 149.130435 25.9860465 149.130435 25.3837209 149.130435 24.6953488 149.478261 24.2651163 150 23.8348837 150.782609 24.1790698 151.652174 24.3511628 152.434783 24.3511628 156.173913 24.3511628 158.782609 22.027907 158.782609 18.7581395 158.782609 17.7255814 158.434783 16.6069767 157.73913 15.8325581L160.434783 15.8325581 160.521739 15.7465116C160.956522 14.972093 161.478261 14.3697674 162 13.7674419L162.434783 13.3372093 154.869565 13.3372093C154.173913 13.0790698 153.304348 12.9930233 152.434783 12.9930233 148.695652 12.9930233 145.913043 15.4023256 145.913043 18.7581395 145.913043 20.9953488 147.304348 22.4581395 148 22.9744186 147.391304 23.4046512 146.26087 24.4372093 146.26087 25.9 146.26087 26.9325581 146.782609 27.8790698 147.652174 28.4813953 146.173913 29.5139535 145.304348 30.7186047 145.304348 32.0093023 145.304348 34.7627907 148 36.3976744 152.434783 36.3976744 158.086957 36.3976744 161.043478 33.5581395 161.043478 30.8046512 161.130435 28.1372093 159.217391 26.8465116 155.043478 26.8465116M152.434783 15.3162791C154.434783 15.3162791 155.73913 16.6930233 155.73913 18.672093 155.73913 20.6511628 154.347826 22.1139535 152.434783 22.1139535 150.521739 22.1139535 149.130435 20.6511628 149.130435 18.672093 149.217391 16.6930233 150.521739 15.3162791 152.434783 15.3162791M152.869565 34.0744186C150.086957 34.0744186 148.26087 33.127907 148.26087 31.5790698 148.26087 30.7186047 148.782609 29.944186 149.73913 29.255814 150.521739 29.427907 151.304348 29.5139535 151.826087 29.5139535L154.695652 29.5139535C157.478261 29.5139535 157.826087 30.3744186 157.826087 31.1488372 157.913043 32.6116279 156 34.0744186 152.869565 34.0744186M215.913043 27.7069767C215.913043 26.5883721 216.782609 25.6418605 218 25.6418605 219.130435 25.6418605 220 26.5883721 220 27.6209302 220 28.7395349 219.130435 29.6860465 217.913043 29.6860465 216.869565 29.6860465 215.913043 28.7395349 215.913043 27.7069767zM219.826087 27.6209302C219.826087 26.5883721 219.043478 25.8139535 218 25.8139535 216.956522 25.8139535 216.173913 26.6744186 216.173913 27.6209302 216.173913 28.6534884 216.956522 29.427907 218 29.427907 219.043478 29.5139535 219.826087 28.6534884 219.826087 27.6209302zM217.130435 26.5023256L218.086957 26.5023256C218.347826 26.5023256 218.608696 26.5883721 218.695652 26.7604651 218.782609 26.8465116 218.869565 27.0186047 218.869565 27.1906977 218.869565 27.5348837 218.695652 27.7069767 218.347826 27.7930233L218.956522 28.5674419 218.434783 28.5674419 217.913043 27.7930233 217.478261 27.7930233 217.478261 28.5674419 217.043478 28.5674419 217.043478 26.5023256 217.130435 26.5023256zM218.086957 27.5348837C218.347826 27.5348837 218.521739 27.4488372 218.521739 27.1906977 218.521739 27.0186047 218.347826 26.8465116 218.086957 26.8465116L217.565217 26.8465116 217.565217 27.5348837 218.086957 27.5348837z"/>
  </g>
</svg>
